<svg width="24" height="24" viewBox="0 0 24 24" fill="none" xmlns="http://www.w3.org/2000/svg">
<path d="M22 12C22.0017 13.3172 21.7424 14.6216 21.237 15.8379C20.7316 17.0543 19.9901 18.1584 19.0555 19.0865C18.1285 20.0118 17.0283 20.7454 15.8177 21.2454C14.6071 21.7453 13.3098 22.0017 12 22C6.47701 22 2.00001 17.523 2.00001 12C1.99651 9.43589 2.98144 6.96909 4.75001 5.11251C5.68318 4.12781 6.80747 3.34388 8.05407 2.8087C9.30068 2.27352 10.6434 1.99834 12 2.00001C13.3098 1.99831 14.6071 2.25475 15.8177 2.75466C17.0283 3.25458 18.1285 3.98817 19.0555 4.91351C19.9901 5.84162 20.7316 6.94575 21.237 8.16208C21.7424 9.37842 22.0017 10.6829 22 12Z" stroke="#BABABA" stroke-width="2" stroke-linecap="round" stroke-linejoin="round"/>
<path d="M22 11.9998C20.541 11.9998 16.516 11.4498 12.9135 13.0313C9.00002 14.7498 6.16652 17.4158 4.93152 19.0733" stroke="#BABABA" stroke-width="2" stroke-linecap="round" stroke-linejoin="round"/>
<path d="M8.25 2.72705C9.815 4.17155 13.23 7.84905 14.5 11.5001C15.77 15.1511 16.24 19.6401 16.53 20.9176" stroke="#BABABA" stroke-width="2" stroke-linecap="round" stroke-linejoin="round"/>
<path d="M2.07703 10.7499C3.96603 10.8639 8.96653 10.9664 12.1665 9.59986C15.3665 8.23336 18.12 5.71986 19.0645 4.92236M2.75003 15.8064C3.63118 17.9393 5.22038 19.7035 7.25003 20.8019" stroke="#BABABA" stroke-width="2" stroke-linecap="round" stroke-linejoin="round"/>
<path d="M2.00001 12C1.99651 9.43589 2.98144 6.96909 4.75001 5.11251C5.68318 4.12781 6.80747 3.34388 8.05407 2.8087C9.30068 2.27352 10.6434 1.99834 12 2.00001M16 2.83201C17.1388 3.33028 18.175 4.03613 19.0555 4.91351C19.9901 5.84162 20.7316 6.94574 21.237 8.16208C21.7424 9.37842 22.0017 10.6829 22 12C22 13.231 21.7775 14.4105 21.37 15.5M12 22C13.3098 22.0017 14.6071 21.7453 15.8177 21.2454C17.0283 20.7454 18.1285 20.0118 19.0555 19.0865" stroke="#BABABA" stroke-width="2" stroke-linecap="round" stroke-linejoin="round"/>
</svg>
