<svg width="170" height="40" viewBox="0 0 170 40" fill="none" xmlns="http://www.w3.org/2000/svg">
<g clip-path="url(#clip0_1_30)">
<path fill-rule="evenodd" clip-rule="evenodd" d="M10.5148 2.5V40H0.5V2.5H10.5148Z" fill="#FD5F00"/>
<path fill-rule="evenodd" clip-rule="evenodd" d="M15.5222 2.5H36.8037C43.7175 2.5 49.3222 8.09644 49.3222 15C49.3222 21.9036 43.7175 27.5 36.8037 27.5H25.537V40H15.5222V2.5ZM25.537 17.5H36.8037C38.1865 17.5 39.3074 16.3807 39.3074 15C39.3074 13.6193 38.1865 12.5 36.8037 12.5H25.537V17.5Z" fill="#FD5F00"/>
<path fill-rule="evenodd" clip-rule="evenodd" d="M86.8778 2.5V21.875C86.8778 26.3623 90.5208 30 95.0148 30C99.5088 30 103.152 26.3623 103.152 21.875V2.5H113.167V21.875C113.167 31.8852 105.04 40 95.0148 40C84.9898 40 76.863 31.8852 76.863 21.875V2.5H86.8778Z" fill="#FD5F00"/>
<path fill-rule="evenodd" clip-rule="evenodd" d="M53.0778 20C53.0778 10.335 60.9244 2.5 70.6037 2.5H73.1074V12.5H70.6037C66.4554 12.5 63.0926 15.8579 63.0926 20V21.25C63.0926 31.6053 54.6855 40 44.3148 40H43.063V30H44.3148C49.1545 30 53.0778 26.0825 53.0778 21.25V20Z" fill="#FD5F00"/>
<path d="M169.5 3.75C169.5 5.82107 167.819 7.5 165.744 7.5C163.67 7.5 161.989 5.82107 161.989 3.75C161.989 1.67893 163.67 0 165.744 0C167.819 0 169.5 1.67893 169.5 3.75Z" fill="#FD5F00"/>
<path d="M123.92 39.9999L128.699 20.018L132.252 32.0392C134.37 39.209 144.541 39.209 146.66 32.0392L150.212 20.018L154.991 39.9999H165.287L157.773 8.57937C155.986 1.10732 145.441 0.830666 143.263 8.19879L139.456 21.0832L135.648 8.1988C133.471 0.830709 122.925 1.10728 121.138 8.57936L113.624 39.9999H123.92Z" fill="#FD5F00"/>
</g>
<defs>
<clipPath id="clip0_1_30">
<rect width="169" height="40" fill="white" transform="translate(0.5)"/>
</clipPath>
</defs>
</svg>
